<?xml version="1.0" encoding="UTF-8"?>
<svg width="79px" height="70px" viewBox="0 0 79 70" version="1.1" xmlns="http://www.w3.org/2000/svg" xmlns:xlink="http://www.w3.org/1999/xlink">
    <!-- Generator: Sketch 40.2 (33826) - http://www.bohemiancoding.com/sketch -->
    <title>Page 1</title>
    <desc>Created with Sketch.</desc>
    <defs></defs>
    <g id="Page-1" stroke="none" stroke-width="1" fill="none" fill-rule="evenodd">
        <g id="Landingpage-focus-accountant-Entrepreneur-web-new-v2" transform="translate(-277.000000, -1258.000000)" fill="#231F1F">
            <g id="How-it-works-1" transform="translate(0.000000, 1126.000000)">
                <g id="Page-1" transform="translate(277.000000, 132.000000)">
                    <g>
                        <path d="M76.499,49.7217 C76.499,52.4787 74.256,54.7217 71.504,54.7217 L64.483,54.6877 C64.465,54.6877 64.45,54.6967 64.431,54.6977 C64.128,54.6547 63.812,54.7337 63.581,54.9687 L52.981,65.7237 L52.981,55.7607 C52.981,55.6167 52.948,55.4817 52.894,55.3577 C52.746,54.9907 52.389,54.7297 51.969,54.7297 L7,54.7217 C4.243,54.7217 2,52.4787 2,49.7217 L2,6.9997 C2,4.2427 4.243,1.9997 7,1.9997 L71.499,1.9997 C74.256,1.9997 76.499,4.2427 76.499,6.9997 L76.499,49.7217 Z M71.499,-0.0003 L7,-0.0003 C3.141,-0.0003 0,3.1407 0,6.9997 L0,49.7217 C0,53.5807 3.141,56.7217 7,56.7217 L50.981,56.7297 L50.981,68.1627 C50.981,68.5697 51.227,68.9347 51.603,69.0877 C51.725,69.1387 51.853,69.1627 51.981,69.1627 C52.244,69.1627 52.502,69.0597 52.693,68.8657 L64.694,56.6887 L71.499,56.7217 C75.358,56.7217 78.499,53.5807 78.499,49.7217 L78.499,6.9997 C78.499,3.1407 75.358,-0.0003 71.499,-0.0003 L71.499,-0.0003 Z" id="Fill-1"></path>
                        <polygon id="Fill-4" points="14.017 15.6791 64.483 15.6791 64.483 13.6791 14.017 13.6791"></polygon>
                        <polygon id="Fill-6" points="14.017 24.7111 64.483 24.7111 64.483 22.7111 14.017 22.7111"></polygon>
                        <polygon id="Fill-7" points="14.017 33.7421 64.483 33.7421 64.483 31.7421 14.017 31.7421"></polygon>
                        <polygon id="Fill-8" points="14.0146 42.9873 41.6976 43.0503 41.7016 41.0503 14.0186 40.9873"></polygon>
                    </g>
                </g>
            </g>
        </g>
    </g>
</svg>