<?xml version="1.0" encoding="UTF-8" standalone="no"?>
<svg width="16px" height="16px" viewBox="0 0 16 16" version="1.1" xmlns="http://www.w3.org/2000/svg" xmlns:xlink="http://www.w3.org/1999/xlink">
    <!-- Generator: Sketch 40.2 (33826) - http://www.bohemiancoding.com/sketch -->
    <title>Fill 1</title>
    <desc>Created with Sketch.</desc>
    <defs></defs>
    <g id="Page-1" stroke="none" stroke-width="1" fill="none" fill-rule="evenodd">
        <g id="View-profile-top-chat-entrepreneur-web-5b" transform="translate(-934.000000, -778.000000)" fill="#203846">
            <g id="Group-5" transform="translate(0.000000, 596.000000)">
                <g id="Group-11" transform="translate(133.000000, 168.000000)">
                    <g id="Group-13" transform="translate(440.000000, 0.000000)">
                        <g id="Group-15">
                            <path d="M361.642697,29.3542888 L363.929138,24.8904872 L364.074411,25.0357722 L366.159656,27.1304594 L361.642697,29.3542888 Z M376.349972,14.6527359 C375.505975,13.804917 374.158023,13.7855457 373.281886,14.5797705 L373.275458,14.5733134 L373.212463,14.6365931 C373.206035,14.6430502 373.198964,14.6469245 373.193179,14.6527359 C373.186751,14.6585473 373.182894,14.6662958 373.177109,14.6721072 L363.467607,24.4255751 L363.486248,24.4443007 C363.439324,24.4914376 363.388543,24.5347003 363.357046,24.5947514 L361.071247,29.0591988 C360.944615,29.3065062 360.989611,29.6074076 361.183737,29.8062866 C361.307798,29.932846 361.474283,30 361.642697,30 C361.738474,30 361.835537,29.9786915 361.925529,29.9341375 L366.45213,27.7057881 C366.513196,27.6754396 366.557549,27.6244284 366.605117,27.5779372 L366.620544,27.5934343 L376.326189,17.8438407 C376.33326,17.8367379 376.342902,17.8315722 376.349972,17.8244693 C376.357686,17.8167208 376.362828,17.8076809 376.369899,17.7999323 L376.429037,17.7411726 L376.422609,17.7347155 C377.213253,16.8546111 377.194612,15.5005547 376.349972,14.6527359 L376.349972,14.6527359 Z" id="Fill-1"></path>
                        </g>
                    </g>
                </g>
            </g>
        </g>
    </g>
</svg>