<?xml version="1.0" encoding="UTF-8"?>
<svg width="77px" height="64px" viewBox="0 0 77 64" version="1.1" xmlns="http://www.w3.org/2000/svg" xmlns:xlink="http://www.w3.org/1999/xlink">
    <!-- Generator: Sketch 40.2 (33826) - http://www.bohemiancoding.com/sketch -->
    <title>Page 1</title>
    <desc>Created with Sketch.</desc>
    <defs></defs>
    <g id="Page-1" stroke="none" stroke-width="1" fill="none" fill-rule="evenodd">
        <g id="Landingpage-focus-accountant-Entrepreneur-web-new-v2" transform="translate(-1082.000000, -1260.000000)" fill="#000000">
            <g id="How-it-works-1" transform="translate(0.000000, 1126.000000)">
                <g id="Page-1" transform="translate(1082.000000, 134.000000)">
                    <path d="M15.125,61.3338 L46.734,61.3338 C57.323,51.3808 57.188,38.8288 57.186,38.7028 C57.185,38.6228 57.191,38.5458 57.208,38.4708 L57.208,29.4978 C57.208,27.5668 55.638,25.9968 53.707,25.9968 L44.448,25.9968 L14.751,25.7318 L5.501,25.7318 C3.57,25.7318 2,27.3028 2,29.2328 L2.042,39.3698 C2.043,53.5428 13.472,60.4148 15.125,61.3338 M47.127,63.3338 L14.873,63.3338 C14.718,63.3338 14.564,63.2978 14.425,63.2278 C14.281,63.1558 0.043,55.8298 0.043,39.4168 L0.001,38.5388 C0,38.5228 0,38.5078 0,38.4918 L0,29.2328 C0,26.1998 2.468,23.7318 5.501,23.7318 L14.76,23.7318 L44.457,23.9968 L53.707,23.9968 C56.74,23.9968 59.208,26.4648 59.208,29.4978 L59.208,38.7568 C59.208,38.8278 59.2,38.8968 59.187,38.9648 C59.163,41.0908 58.545,53.1998 47.804,63.0698 C47.619,63.2398 47.378,63.3338 47.127,63.3338" id="Fill-1"></path>
                    <path d="M54.6816,53.4285 C54.1826,53.4285 53.7506,53.0565 53.6896,52.5485 C53.6226,52.0005 54.0136,51.5025 54.5626,51.4355 C64.0176,50.2885 65.7416,49.1185 70.2606,45.2375 C74.3936,41.6865 74.0446,36.9495 74.0286,36.7495 C74.0246,32.6255 70.7416,29.3425 66.7056,29.3425 C62.7196,29.3425 59.2236,32.9055 59.2236,36.9665 C59.2236,37.5195 58.7766,37.9665 58.2236,37.9665 C57.6706,37.9665 57.2236,37.5195 57.2236,36.9665 C57.2236,31.7495 61.5666,27.3425 66.7056,27.3425 C71.8436,27.3425 76.0246,31.5235 76.0246,36.6615 C76.0416,36.8115 76.5006,42.5135 71.5636,46.7545 C66.8956,50.7645 64.7736,52.2125 54.8026,53.4215 C54.7616,53.4265 54.7216,53.4285 54.6816,53.4285" id="Fill-3"></path>
                    <path d="M25.459,19.4686 C25.21,19.4686 24.96,19.3756 24.766,19.1896 C20.3,14.8966 23.562,10.5486 26.97,6.8116 C27.929,5.7596 28.317,4.8396 28.124,4.0776 C27.832,2.9296 26.248,2.1506 25.663,1.9466 C25.143,1.7656 24.865,1.1976 25.044,0.6756 C25.224,0.1546 25.795,-0.1254 26.311,0.0546 C26.438,0.0976 29.436,1.1456 30.06,3.5756 C30.434,5.0326 29.892,6.5746 28.448,8.1586 C24.109,12.9166 23.551,15.2466 26.152,17.7476 C26.55,18.1306 26.563,18.7636 26.18,19.1616 C25.983,19.3656 25.722,19.4686 25.459,19.4686" id="Fill-5"></path>
                    <path d="M34.2168,19.4686 C33.9678,19.4686 33.7178,19.3756 33.5238,19.1896 C30.0828,15.8806 32.5448,12.5876 35.1228,9.7606 C35.5628,9.2796 36.0538,8.5836 35.9048,8.0046 C35.7148,7.2636 34.5758,6.7376 34.2818,6.6366 C33.7588,6.4586 33.4798,5.8906 33.6578,5.3676 C33.8368,4.8446 34.4068,4.5626 34.9268,4.7436 C35.1748,4.8276 37.3588,5.6216 37.8418,7.5066 C38.1408,8.6656 37.7228,9.8776 36.6018,11.1086 C33.1868,14.8536 33.3348,16.2336 34.9098,17.7476 C35.3078,18.1306 35.3208,18.7636 34.9378,19.1616 C34.7408,19.3656 34.4798,19.4686 34.2168,19.4686" id="Fill-7"></path>
                </g>
            </g>
        </g>
    </g>
</svg>