<?xml version="1.0" encoding="UTF-8"?>
<svg width="44px" height="44px" viewBox="0 0 44 44" version="1.1" xmlns="http://www.w3.org/2000/svg" xmlns:xlink="http://www.w3.org/1999/xlink">
    <!-- Generator: Sketch 40.2 (33826) - http://www.bohemiancoding.com/sketch -->
    <title>Group 8</title>
    <desc>Created with Sketch.</desc>
    <defs></defs>
    <g id="Page-1" stroke="none" stroke-width="1" fill="none" fill-rule="evenodd">
        <g id="View-profile-top-chat-entrepreneur-web-3" transform="translate(-134.000000, -870.000000)">
            <g id="Group-5" transform="translate(-24.000000, 803.000000)">
                <g id="Group-8" transform="translate(158.000000, 67.000000)">
                    <circle id="Oval-5" fill="#88B339" cx="22" cy="22" r="22"></circle>
                    <g id="Page-1" transform="translate(12.000000, 11.000000)" fill="#FFFFFF">
                        <path d="M17.17688,16.03032 C18.00088,14.03512 17.96568,12.43752 17.96568,12.43752 L17.97208,12.46152 L17.97208,12.04392 C17.98488,11.99672 18.00168,11.95032 18.00168,11.89912 C18.00168,10.77592 18.96648,9.79032 20.06648,9.79032 C21.17608,9.79032 22.08008,10.69352 22.08168,11.85432 C22.08648,11.91112 22.17688,13.26632 20.99688,14.27992 C19.83288,15.28072 19.34728,15.69512 17.17688,16.03032 M23.28008,11.80392 C23.28008,10.03192 21.83768,8.59032 20.06648,8.59032 C19.26728,8.59032 18.53288,8.91032 17.95848,9.41432 C17.88728,8.69912 17.29208,8.13912 16.55848,8.13912 L13.64968,8.13912 L4.32248,8.05592 L1.41448,8.05592 C0.63288,8.05592 8.00000002e-05,8.68872 8.00000002e-05,9.46952 L8.00000002e-05,12.37832 L0.01368,12.66872 C0.01368,17.69112 4.35848,19.86872 4.35848,19.86872 L14.49128,19.86872 C15.38168,19.05032 16.04408,18.17832 16.53608,17.32952 C19.59608,16.94392 20.29208,16.46792 21.77848,15.19112 C23.44008,13.76392 23.28488,11.83112 23.28008,11.80392" id="Fill-1"></path>
                        <path d="M7.26848,6.52088 C7.38448,6.63288 7.53488,6.68808 7.68448,6.68808 C7.84128,6.68808 7.99888,6.62648 8.11648,6.50408 C8.34608,6.26488 8.33888,5.88488 8.10048,5.65528 C7.56928,5.14488 7.33408,4.68808 8.83408,3.04088 C9.48528,2.32728 9.50448,1.72088 9.40608,1.33768 C9.17568,0.44168 8.15888,0.07128 8.04448,0.03288 C7.73248,-0.07352 7.39408,0.09208 7.28528,0.40408 C7.17728,0.71608 7.34288,1.05688 7.65328,1.16728 C7.83488,1.23208 8.19328,1.43528 8.24448,1.63768 C8.27808,1.77208 8.16928,1.98888 7.94768,2.23368 C7.10848,3.15368 5.54768,4.86648 7.26848,6.52088" id="Fill-4"></path>
                        <path d="M10.56696,1.16856 C10.73976,1.22696 11.10136,1.43176 11.15416,1.63656 C11.18856,1.77096 11.08056,1.98856 10.85736,2.23336 C10.01816,3.15336 8.45736,4.86696 10.17896,6.52056 C10.29496,6.63256 10.44456,6.68776 10.59416,6.68776 C10.75176,6.68776 10.90936,6.62616 11.02696,6.50376 C11.25656,6.26456 11.24936,5.88536 11.01016,5.65496 C10.47976,5.14616 10.24376,4.68776 11.74456,3.04136 C12.39576,2.32776 12.41496,1.72056 12.31656,1.33816 C12.08616,0.44216 11.06856,0.07176 10.95336,0.03256 C10.64056,-0.07544 10.29976,0.09336 10.19256,0.40696 C10.08536,0.72056 10.25336,1.06136 10.56696,1.16856" id="Fill-6"></path>
                    </g>
                </g>
            </g>
        </g>
    </g>
</svg>