<?xml version="1.0" encoding="UTF-8"?>
<svg width="71px" height="71px" viewBox="0 0 71 71" version="1.1" xmlns="http://www.w3.org/2000/svg" xmlns:xlink="http://www.w3.org/1999/xlink">
    <!-- Generator: Sketch 40.2 (33826) - http://www.bohemiancoding.com/sketch -->
    <title>Page 1</title>
    <desc>Created with Sketch.</desc>
    <defs>
        <polygon id="path-1" points="70.736 70.9997 70.736 0.264 0.0002 0.264 0.0002 70.9997 70.736 70.9997"></polygon>
    </defs>
    <g id="Page-1" stroke="none" stroke-width="1" fill="none" fill-rule="evenodd">
        <g id="Landingpage-focus-accountant-Entrepreneur-web-new-v2" transform="translate(-685.000000, -1257.000000)">
            <g id="How-it-works-1" transform="translate(0.000000, 1126.000000)">
                <g id="Page-1" transform="translate(685.000000, 130.000000)">
                    <g id="Group-3" transform="translate(0.000000, 0.736300)">
                        <mask id="mask-2" fill="white">
                            <use xlink:href="#path-1"></use>
                        </mask>
                        <g id="Clip-2"></g>
                        <path d="M35.3682,2.2637 C16.9692,2.2637 2.0002,17.2327 2.0002,35.6317 C2.0002,54.0317 16.9692,68.9997 35.3682,68.9997 C53.7672,68.9997 68.7362,54.0317 68.7362,35.6317 C68.7362,17.2327 53.7672,2.2637 35.3682,2.2637 M35.3682,70.9997 C15.8662,70.9997 0.0002,55.1337 0.0002,35.6317 C0.0002,16.1297 15.8662,0.2637 35.3682,0.2637 C54.8702,0.2637 70.7362,16.1297 70.7362,35.6317 C70.7362,55.1337 54.8702,70.9997 35.3682,70.9997" id="Fill-1" fill="#231F1F" mask="url(#mask-2)"></path>
                    </g>
                    <path d="M11.4687,61.6611 C11.0757,61.6611 10.7037,61.4291 10.5447,61.0431 C10.3337,60.5321 10.5757,59.9481 11.0867,59.7371 L25.4457,53.8031 C25.6387,53.7231 25.8497,53.7081 26.0517,53.7521 C26.1577,53.7751 26.6337,53.8211 26.8327,53.6161 C27.0147,53.4301 27.1197,52.8581 26.8737,51.8131 C26.1487,48.7271 25.4167,44.4421 25.1597,42.8971 C24.3407,42.4881 23.3397,41.5491 22.8417,39.7241 C22.7187,39.2711 22.5797,38.8191 22.4417,38.3681 C21.7917,36.2491 21.1187,34.0571 21.9807,31.9061 C22.5617,30.4531 22.1147,25.3921 21.6957,22.5451 C21.6857,22.4811 21.6827,22.4161 21.6857,22.3511 C21.6907,22.2491 22.3047,12.0401 33.3727,11.0771 C33.6747,11.0341 41.9957,9.9411 46.1197,14.7931 C50.2067,19.6011 49.2957,24.2091 49.2547,24.4021 C49.0157,26.3481 48.6677,29.8901 48.8137,30.7661 C48.8537,31.0091 48.9177,31.2981 48.9887,31.6181 C49.3237,33.1411 49.8307,35.4451 48.9467,37.2151 C48.2027,38.7021 46.9897,40.9731 46.5937,41.7131 C46.6237,42.7411 46.5977,45.9121 45.2187,47.5201 C43.9557,48.9951 42.9707,51.0021 43.5317,51.9851 C44.2987,53.3271 46.0087,54.3311 49.2477,55.3441 C52.8387,56.4661 60.0317,59.3871 60.3357,59.5101 C60.8477,59.7181 61.0937,60.3021 60.8857,60.8131 C60.6767,61.3251 60.0927,61.5671 59.5817,61.3631 C59.5087,61.3331 52.1617,58.3491 48.6517,57.2521 C44.8357,56.0601 42.8497,54.8211 41.7957,52.9771 C40.6507,50.9721 42.0287,48.1711 43.6997,46.2191 C44.5857,45.1851 44.6367,42.4261 44.5847,41.5401 C44.5737,41.3551 44.6147,41.1711 44.7017,41.0081 C44.7177,40.9781 46.2777,38.0821 47.1567,36.3201 C47.7257,35.1831 47.3107,33.2971 47.0347,32.0481 C46.9567,31.6891 46.8857,31.3661 46.8407,31.0951 C46.6057,29.6761 47.1687,24.9961 47.2837,24.0721 C47.3277,23.8391 48.0197,20.1151 44.5967,16.0881 C41.1757,12.0651 33.6707,13.0551 33.5977,13.0631 C24.6527,13.8441 23.7657,21.3971 23.6897,22.3601 C23.8607,23.5541 24.7737,30.3071 23.8377,32.6481 C23.2387,34.1461 23.7807,35.9121 24.3537,37.7821 C24.4977,38.2531 24.6427,38.7251 24.7717,39.1981 C25.2457,40.9361 26.1867,41.1621 26.2267,41.1711 C26.6277,41.2591 26.9747,41.5921 27.0387,41.9971 C27.0477,42.0531 27.9427,47.6181 28.8217,51.3551 C29.2127,53.0181 29.0197,54.2551 28.2467,55.0301 C27.4977,55.7831 26.4927,55.8071 25.9547,55.7561 L11.8507,61.5851 C11.7257,61.6371 11.5967,61.6611 11.4687,61.6611" id="Fill-4" fill="#231F1F"></path>
                </g>
            </g>
        </g>
    </g>
</svg>