<?xml version="1.0" encoding="UTF-8"?>
<svg width="50px" height="50px" viewBox="0 0 50 50" version="1.1" xmlns="http://www.w3.org/2000/svg" xmlns:xlink="http://www.w3.org/1999/xlink">
    <!-- Generator: Sketch 40.3 (33839) - http://www.bohemiancoding.com/sketch -->
    <title>Group 8</title>
    <desc>Created with Sketch.</desc>
    <defs></defs>
    <g id="Page-1" stroke="none" stroke-width="1" fill="none" fill-rule="evenodd">
        <g id="View-profile-top-chat-entrepreneur-web-6" transform="translate(-362.000000, -563.000000)">
            <g id="Group-4" transform="translate(0.000000, 297.000000)">
                <g id="Group-9">
                    <g transform="translate(325.000000, -88.000000)" id="Group-3">
                        <g transform="translate(1.000000, 350.000000)">
                            <g id="Group-8" transform="translate(36.000000, 4.000000)">
                                <circle id="Oval-5" fill="#88B339" cx="25" cy="25" r="25"></circle>
                                <g id="Page-1" transform="translate(12.000000, 12.000000)" fill="#FFFFFF">
                                    <path d="M21.4711,20.0379 C22.5011,17.5439 22.4571,15.5469 22.4571,15.5469 L22.4651,15.5769 L22.4651,15.0549 C22.4811,14.9959 22.5021,14.9379 22.5021,14.8739 C22.5021,13.4699 23.7081,12.2379 25.0831,12.2379 C26.4701,12.2379 27.6001,13.3669 27.6021,14.8179 C27.6081,14.8889 27.7211,16.5829 26.2461,17.8499 C24.7911,19.1009 24.1841,19.6189 21.4711,20.0379 M29.1001,14.7549 C29.1001,12.5399 27.2971,10.7379 25.0831,10.7379 C24.0841,10.7379 23.1661,11.1379 22.4481,11.7679 C22.3591,10.8739 21.6151,10.1739 20.6981,10.1739 L17.0621,10.1739 L5.4031,10.0699 L1.7681,10.0699 C0.7911,10.0699 0.0001,10.8609 0.0001,11.8369 L0.0001,15.4729 L0.0171,15.8359 C0.0171,22.1139 5.4481,24.8359 5.4481,24.8359 L18.1141,24.8359 C19.2271,23.8129 20.0551,22.7229 20.6701,21.6619 C24.4951,21.1799 25.3651,20.5849 27.2231,18.9889 C29.3001,17.2049 29.1061,14.7889 29.1001,14.7549" id="Fill-1"></path>
                                    <path d="M9.0856,8.1511 C9.2306,8.2911 9.4186,8.3601 9.6056,8.3601 C9.8016,8.3601 9.9986,8.2831 10.1456,8.1301 C10.4326,7.8311 10.4236,7.3561 10.1256,7.0691 C9.4616,6.4311 9.1676,5.8601 11.0426,3.8011 C11.8566,2.9091 11.8806,2.1511 11.7576,1.6721 C11.4696,0.5521 10.1986,0.0891 10.0556,0.0411 C9.6656,-0.0919 9.2426,0.1151 9.1066,0.5051 C8.9716,0.8951 9.1786,1.3211 9.5666,1.4591 C9.7936,1.5401 10.2416,1.7941 10.3056,2.0471 C10.3476,2.2151 10.2116,2.4861 9.9346,2.7921 C8.8856,3.9421 6.9346,6.0831 9.0856,8.1511" id="Fill-4"></path>
                                    <path d="M13.2087,1.4607 C13.4247,1.5337 13.8767,1.7897 13.9427,2.0457 C13.9857,2.2137 13.8507,2.4857 13.5717,2.7917 C12.5227,3.9417 10.5717,6.0837 12.7237,8.1507 C12.8687,8.2907 13.0557,8.3597 13.2427,8.3597 C13.4397,8.3597 13.6367,8.2827 13.7837,8.1297 C14.0707,7.8307 14.0617,7.3567 13.7627,7.0687 C13.0997,6.4327 12.8047,5.8597 14.6807,3.8017 C15.4947,2.9097 15.5187,2.1507 15.3957,1.6727 C15.1077,0.5527 13.8357,0.0897 13.6917,0.0407 C13.3007,-0.0943 12.8747,0.1167 12.7407,0.5087 C12.6067,0.9007 12.8167,1.3267 13.2087,1.4607" id="Fill-6"></path>
                                </g>
                            </g>
                        </g>
                    </g>
                </g>
            </g>
        </g>
    </g>
</svg>