<?xml version="1.0" encoding="UTF-8" standalone="no"?>
<svg width="20px" height="21px" viewBox="0 0 20 21" version="1.1" xmlns="http://www.w3.org/2000/svg" xmlns:xlink="http://www.w3.org/1999/xlink">
    <!-- Generator: Sketch 40.2 (33826) - http://www.bohemiancoding.com/sketch -->
    <title>close_button</title>
    <desc>Created with Sketch.</desc>
    <defs></defs>
    <g id="Page-1" stroke="none" stroke-width="1" fill="none" fill-rule="evenodd">
        <g id="View-profile-top-chat-entrepreneur-web-5b" transform="translate(-1289.000000, -693.000000)">
            <g id="Group-5" transform="translate(0.000000, 596.000000)">
                <g id="close_button" transform="translate(1289.000000, 97.000000)">
                    <path d="M19.50928,10.6561269 C19.50928,16.0951269 15.14208,20.5043192 9.75488,20.5043192 C4.36768,20.5043192 -0.000319999999,16.0951269 -0.000319999999,10.6561269 C-0.000319999999,5.21712692 4.36768,0.807934615 9.75488,0.807934615 C15.14208,0.807934615 19.50928,5.21712692 19.50928,10.6561269" id="Fill-1" fill="#A6A6A6"></path>
                    <path d="M11.16296,10.6457885 L13.13896,8.65078846 C13.45176,8.33578846 13.45176,7.82451923 13.13896,7.50871154 C12.82616,7.19371154 12.31976,7.19371154 12.00776,7.50871154 L10.03176,9.50371154 L8.05576,7.50871154 C7.74296,7.19371154 7.23656,7.19371154 6.92456,7.50871154 C6.61176,7.82451923 6.61176,8.33578846 6.92456,8.65078846 L8.90056,10.6457885 L6.92456,12.6407885 C6.61176,12.9557885 6.61176,13.4670577 6.92456,13.7828654 C7.08056,13.9403654 7.28536,14.0195192 7.49016,14.0195192 C7.69496,14.0195192 7.89976,13.9403654 8.05576,13.7828654 L10.03176,11.7878654 L12.00776,13.7828654 C12.16376,13.9403654 12.36856,14.0195192 12.57336,14.0195192 C12.77816,14.0195192 12.98296,13.9403654 13.13896,13.7828654 C13.45176,13.4670577 13.45176,12.9557885 13.13896,12.6407885 L11.16296,10.6457885 Z" id="Fill-4" fill="#FFFFFF"></path>
                </g>
            </g>
        </g>
    </g>
</svg>