<svg xmlns="http://www.w3.org/2000/svg" width="162" height="43" viewBox="0 0 161.41 42.15"><defs><style>.cls-1{fill:#203846;}.cls-2{fill:#f4f4f4;}.cls-3{fill:#88b339;}</style></defs><title>Logo connect</title><g id="Layer_2" data-name="Layer 2"><path class="cls-1" d="M49.31,20c0-4.24,2.29-7.39,7-7.39a16.71,16.71,0,0,1,5.22.91l-.82,3a12,12,0,0,0-4.21-.75c-2.67,0-3.49,1.92-3.49,4.56V22c0,2.7.82,4.62,3.49,4.62a11.5,11.5,0,0,0,4.21-.79l.82,3a16.74,16.74,0,0,1-5.22.91c-4.72,0-7-3.17-7-7.42Z"/><path class="cls-1" d="M64.49,19.95c0-4.37,2.55-7.29,7-7.29s7,2.92,7,7.29v2.48c0,4.5-2.58,7.32-7,7.32s-7-2.83-7-7.32Zm3.71,2.23c0,2.83.75,4.46,3.27,4.46s3.3-1.63,3.3-4.46V20.23c0-2.77-.79-4.46-3.3-4.46s-3.27,1.7-3.27,4.46Z"/><path class="cls-1" d="M82.25,13.06h3.08l.19,1.51A6.88,6.88,0,0,1,90,12.66c3.43,0,5.28,2.08,5.28,5.53V28.59a.69.69,0,0,1-.75.75H91.68V18.69c0-2-.63-2.92-2.36-2.92a5.11,5.11,0,0,0-3.43,1.6v12H82.25Z"/><path class="cls-1" d="M99.51,13.06h3.08l.19,1.51a6.88,6.88,0,0,1,4.53-1.92c3.43,0,5.28,2.08,5.28,5.53V28.59a.69.69,0,0,1-.75.75h-2.89V18.69c0-2-.63-2.92-2.36-2.92a5.11,5.11,0,0,0-3.43,1.6v12H99.51Z"/><path class="cls-1" d="M116.23,19.41a6.5,6.5,0,0,1,6.7-6.76,6.59,6.59,0,0,1,6.73,6.76v2.11a.76.76,0,0,1-.72.75h-9.05V23c0,1.54.53,3.65,3.49,3.65a16.54,16.54,0,0,0,4.75-.82l.75,2.89a17.55,17.55,0,0,1-5.5,1c-5,0-7.13-3.33-7.13-6.76Zm9.78.28v-.53c0-1.67-.75-3.39-3-3.39s-3.08,1.76-3.08,3.39v.53Z"/><path class="cls-1" d="M132.76,20c0-4.24,2.29-7.39,7-7.39a16.71,16.71,0,0,1,5.22.91l-.82,3a12,12,0,0,0-4.21-.75c-2.67,0-3.49,1.92-3.49,4.56V22c0,2.7.82,4.62,3.49,4.62a11.5,11.5,0,0,0,4.21-.79l.82,3a16.74,16.74,0,0,1-5.22.91c-4.72,0-7-3.17-7-7.42Z"/><path class="cls-1" d="M149.3,15.74l-2.61-.31V13.06h2.61V8h3.65v5.09h3.77v2.67h-3.77v8.64c0,1.6.79,2.26,2,2.26a8.75,8.75,0,0,0,2.36-.35l.6,3a12.11,12.11,0,0,1-3.14.47c-3.52,0-5.47-1.89-5.47-5Z"/></g><g id="Layer_12" data-name="Layer 12"><path class="cls-2" d="M20.52,39.56A18.91,18.91,0,1,1,39.43,20.65,18.93,18.93,0,0,1,20.52,39.56Zm0-33.82A14.91,14.91,0,1,0,35.43,20.65,14.92,14.92,0,0,0,20.52,5.74Z"/><path class="cls-3" d="M20.48,39.56A18.91,18.91,0,1,1,34.36,7.81a2,2,0,1,1-2.94,2.72,14.91,14.91,0,1,0-10.95,25A14.79,14.79,0,0,0,31.18,31a2,2,0,1,1,2.87,2.79A18.76,18.76,0,0,1,20.48,39.56Z"/><path class="cls-2" d="M20.5,27.67a7,7,0,1,1,7-7A7,7,0,0,1,20.5,27.67Zm0-10.05a3,3,0,1,0,3,3A3,3,0,0,0,20.5,17.62Z"/><path class="cls-3" d="M20.5,27.68A7,7,0,0,1,15.73,15.5a2,2,0,0,1,2.72,2.94,3,3,0,0,0-1,2.22,3,3,0,1,0,5.13-2.17,2,2,0,1,1,2.79-2.87A7,7,0,0,1,20.5,27.68Z"/><path class="cls-2" d="M20.49,33.57a12.91,12.91,0,1,1,9.13-3.78A12.88,12.88,0,0,1,20.49,33.57Zm0-21.82a8.91,8.91,0,1,0,6.3,2.61A8.89,8.89,0,0,0,20.49,11.75Z"/><path class="cls-3" d="M20.5,33.56H20a2,2,0,0,1-1.92-2.08,2,2,0,0,1,2.08-1.92,9,9,0,0,0,6.65-2.6A8.92,8.92,0,1,0,11.6,20.78a2,2,0,0,1-4,.06,12.92,12.92,0,1,1,22,8.93A13,13,0,0,1,20.5,33.56Z"/></g></svg>